<svg width="512" height="128" viewBox="0 0 512 128" fill="none" xmlns="http://www.w3.org/2000/svg">
<path d="M107.416 84.1873C107.102 84.1873 106.783 84.1093 106.489 83.9444L83.6719 71.1622C82.7557 70.6488 82.4292 69.4902 82.9425 68.574C83.4556 67.6581 84.6145 67.331 85.5307 67.8446L108.347 80.6268C109.264 81.1402 109.59 82.2988 109.077 83.215C108.728 83.8371 108.082 84.1873 107.416 84.1873Z" fill="#0059E0"/>
<path d="M58.615 52.1886C58.1405 52.1886 57.6653 52.0121 57.2965 51.6568L30.9305 26.2707C30.174 25.5426 30.1511 24.3389 30.8796 23.5822C31.608 22.8262 32.8114 22.8028 33.5681 23.5315L59.9341 48.9175C60.6905 49.6457 60.7134 50.8493 59.985 51.6061C59.6117 51.9937 59.1136 52.1886 58.615 52.1886Z" fill="#0059E0"/>
<path d="M18.557 72.7565C17.6563 72.7565 16.8562 72.1139 16.6886 71.1965C16.4999 70.1634 17.1845 69.1732 18.2176 68.9844L54.6612 62.3301C55.6943 62.1423 56.6846 62.826 56.8731 63.8588C57.0619 64.8919 56.3772 65.8822 55.3441 66.0709L18.9005 72.7252C18.7851 72.7464 18.6702 72.7565 18.557 72.7565Z" fill="#0059E0"/>
<path d="M79.5375 49.0326C79.1804 49.0326 78.8194 48.9322 78.4983 48.7221C77.6195 48.1472 77.3731 46.9687 77.948 46.0899L98.6015 14.5198C99.1763 13.6411 100.355 13.3952 101.234 13.9698C102.112 14.5447 102.359 15.7232 101.784 16.602L81.1305 48.1721C80.7658 48.7297 80.1577 49.0326 79.5375 49.0326Z" fill="#0059E0"/>
<path d="M47.839 106.457C47.5444 106.457 47.2456 106.388 46.9658 106.243C46.0334 105.76 45.6692 104.613 46.1523 103.68L61.0265 74.9726C61.5096 74.0401 62.6573 73.6762 63.5895 74.159C64.522 74.6421 64.8862 75.7896 64.4031 76.722L49.5289 105.43C49.1907 106.082 48.5268 106.457 47.839 106.457Z" fill="#0059E0"/>
<path d="M102.685 22.5025C108.623 22.5025 113.436 17.689 113.436 11.7512C113.436 5.81349 108.623 1 102.685 1C96.7474 1 91.934 5.81349 91.934 11.7512C91.934 17.689 96.7474 22.5025 102.685 22.5025Z" fill="#FF72C7"/>
<path d="M111.165 93.0462C115.948 93.0462 119.826 89.1684 119.826 84.3848C119.826 79.6012 115.948 75.7234 111.165 75.7234C106.381 75.7234 102.503 79.6012 102.503 84.3848C102.503 89.1684 106.381 93.0462 111.165 93.0462Z" fill="#FFE02F"/>
<path d="M15.6614 80.0453C20.445 80.0453 24.3228 76.1674 24.3228 71.3838C24.3228 66.6003 20.445 62.7224 15.6614 62.7224C10.8779 62.7224 7 66.6003 7 71.3838C7 76.1674 10.8779 80.0453 15.6614 80.0453Z" fill="#FBC700"/>
<path d="M77.7918 42.0629C75.4352 41.1366 72.8714 40.6223 70.1861 40.6223C58.6956 40.6223 49.3806 49.9374 49.3806 61.4278C49.3806 72.9183 58.6956 82.2334 70.1861 82.2334C72.8714 82.2334 75.4352 81.719 77.7918 80.7927L79.742 75.8941V46.3434L77.7918 42.0629Z" fill="#00C2FB"/>
<path d="M34.0433 8.23096L25.2141 9.87903V27.9633L34.0433 30.3799C37.5639 27.9574 39.8735 23.9018 39.8735 19.3053C39.8732 14.7091 37.5636 10.6535 34.0433 8.23096Z" fill="#A2E82D"/>
<path d="M28.213 19.3055C28.213 14.709 30.5226 10.6534 34.0432 8.23087C31.8803 6.74276 29.2614 5.86963 26.4375 5.86963C19.0171 5.86963 13.0019 11.8851 13.0019 19.3052C13.0019 26.7256 19.0173 32.7408 26.4375 32.7408C29.2614 32.7408 31.8803 31.8679 34.0432 30.3796C30.5226 27.9575 28.213 23.902 28.213 19.3055Z" fill="#8CC825"/>
<path d="M50.7464 102.63L40.9537 104.653V122.104L50.7464 124.623C54.2296 122.209 56.5125 118.185 56.5125 113.627C56.5125 109.068 54.2296 105.044 50.7464 102.63Z" fill="#FF72C7"/>
<path d="M44.9801 113.626C44.9801 109.068 47.2631 105.044 50.7463 102.63C48.5868 101.134 45.9669 100.255 43.1406 100.255C35.7556 100.255 29.7687 106.242 29.7687 113.627C29.7687 121.012 35.7554 126.999 43.1406 126.999C45.9669 126.999 48.5866 126.12 50.7463 124.623C47.2631 122.209 44.9801 118.185 44.9801 113.626Z" fill="#FF4FB9"/>
<path d="M90.992 61.4281C90.992 52.622 85.5177 45.101 77.7892 42.0642C70.0634 45.1024 64.5918 52.6237 64.5918 61.4281C64.5918 70.2323 70.0634 77.7538 77.7892 80.7921C85.5177 77.7553 90.992 70.234 90.992 61.4281Z" fill="#00D2FC"/>
<path d="M139.526 92.1652V49.8978C139.526 45.1323 140.821 41.5323 143.411 39.0978C146.001 36.6633 149.834 35.446 154.91 35.446C155.998 35.446 156.93 35.4978 157.707 35.6014C158.536 35.705 159.339 35.8863 160.116 36.1453V45.0805C159.753 44.9251 159.313 44.8215 158.795 44.7697C158.277 44.6661 157.655 44.6143 156.93 44.6143C154.962 44.6143 153.511 45.0805 152.579 46.0129C151.647 46.9453 151.18 48.292 151.18 50.0532V92.1652H139.526ZM132.922 61.397V52.5395H159.261V61.397H132.922Z" fill="#0059E0"/>
<path d="M182.686 92.9421C178.283 92.9421 174.45 92.0875 171.187 90.3781C167.924 88.617 165.386 86.1825 163.573 83.0746C161.811 79.9667 160.931 76.3926 160.931 72.3523C160.931 68.2603 161.811 64.6862 163.573 61.6301C165.386 58.5222 167.898 56.1136 171.109 54.4042C174.321 52.6431 178.05 51.7625 182.298 51.7625C186.39 51.7625 189.938 52.5913 192.942 54.2488C195.947 55.9064 198.277 58.2114 199.935 61.1639C201.593 64.1164 202.421 67.5869 202.421 71.5753C202.421 72.4041 202.395 73.1811 202.344 73.9063C202.292 74.5796 202.214 75.2271 202.111 75.8487H167.768V68.1567H192.709L190.689 69.5552C190.689 66.3437 189.912 63.9869 188.358 62.4847C186.856 60.9308 184.784 60.1538 182.142 60.1538C179.086 60.1538 176.703 61.1898 174.994 63.2617C173.337 65.3337 172.508 68.4415 172.508 72.5854C172.508 76.6257 173.337 79.63 174.994 81.5983C176.703 83.5666 179.242 84.5508 182.608 84.5508C184.473 84.5508 186.079 84.24 187.426 83.6184C188.772 82.9969 189.783 81.9868 190.456 80.5882H201.411C200.116 84.4213 197.889 87.4515 194.729 89.6788C191.621 91.8544 187.607 92.9421 182.686 92.9421Z" fill="#0059E0"/>
<path d="M228.06 92.9421C223.657 92.9421 219.824 92.0875 216.561 90.3781C213.298 88.617 210.76 86.1825 208.947 83.0746C207.186 79.9667 206.305 76.3926 206.305 72.3523C206.305 68.2603 207.186 64.6862 208.947 61.6301C210.76 58.5222 213.272 56.1136 216.483 54.4042C219.695 52.6431 223.424 51.7625 227.672 51.7625C231.764 51.7625 235.312 52.5913 238.316 54.2488C241.321 55.9064 243.652 58.2114 245.309 61.1639C246.967 64.1164 247.795 67.5869 247.795 71.5753C247.795 72.4041 247.769 73.1811 247.718 73.9063C247.666 74.5796 247.588 75.2271 247.485 75.8487H213.142V68.1567H238.083L236.063 69.5552C236.063 66.3437 235.286 63.9869 233.732 62.4847C232.23 60.9308 230.158 60.1538 227.516 60.1538C224.46 60.1538 222.078 61.1898 220.368 63.2617C218.711 65.3337 217.882 68.4415 217.882 72.5854C217.882 76.6257 218.711 79.63 220.368 81.5983C222.078 83.5666 224.616 84.5508 227.983 84.5508C229.847 84.5508 231.453 84.24 232.8 83.6184C234.147 82.9969 235.157 81.9868 235.83 80.5882H246.785C245.49 84.4213 243.263 87.4515 240.103 89.6788C236.995 91.8544 232.981 92.9421 228.06 92.9421Z" fill="#0059E0"/>
<path d="M282.684 92.1652V83.3854L283.461 83.5407C282.943 86.3897 281.389 88.6688 278.799 90.3781C276.261 92.0875 273.205 92.9421 269.631 92.9421C266.005 92.9421 262.845 92.1134 260.152 90.4558C257.51 88.7465 255.464 86.3638 254.014 83.3077C252.563 80.2516 251.838 76.6516 251.838 72.5077C251.838 68.3121 252.589 64.6603 254.091 61.5524C255.593 58.4445 257.691 56.0359 260.385 54.3265C263.13 52.6172 266.316 51.7625 269.942 51.7625C273.723 51.7625 276.779 52.6431 279.11 54.4042C281.493 56.1654 282.891 58.574 283.306 61.6301L282.451 61.7078V36.223H294.105V92.1652H282.684ZM273.36 83.6184C276.106 83.6184 278.333 82.6602 280.042 80.7436C281.752 78.7753 282.606 75.9782 282.606 72.3523C282.606 68.7264 281.726 65.9552 279.965 64.0387C278.255 62.0704 276.002 61.0862 273.205 61.0862C270.511 61.0862 268.284 62.0704 266.523 64.0387C264.814 66.007 263.959 68.8041 263.959 72.43C263.959 76.0559 264.814 78.8271 266.523 80.7436C268.284 82.6602 270.563 83.6184 273.36 83.6184Z" fill="#0059E0"/>
<path d="M322.226 92.9421C317.875 92.9421 314.042 92.0875 310.727 90.3781C307.464 88.617 304.9 86.1825 303.035 83.0746C301.222 79.9149 300.316 76.289 300.316 72.1969C300.316 68.1049 301.222 64.5308 303.035 61.4747C304.9 58.4186 307.464 56.0359 310.727 54.3265C314.042 52.6172 317.875 51.7625 322.226 51.7625C326.629 51.7625 330.462 52.6172 333.726 54.3265C337.041 56.0359 339.605 58.4186 341.418 61.4747C343.231 64.5308 344.137 68.1049 344.137 72.1969C344.137 76.289 343.205 79.9149 341.34 83.0746C339.527 86.1825 336.963 88.617 333.648 90.3781C330.385 92.0875 326.578 92.9421 322.226 92.9421ZM322.226 83.7738C324.039 83.7738 325.671 83.3077 327.121 82.3753C328.624 81.4429 329.815 80.1221 330.696 78.4127C331.576 76.6516 332.016 74.5537 332.016 72.1192C332.016 68.5451 331.058 65.7998 329.142 63.8833C327.277 61.915 324.972 60.9308 322.226 60.9308C319.481 60.9308 317.15 61.915 315.234 63.8833C313.369 65.8516 312.437 68.5969 312.437 72.1192C312.437 74.5537 312.877 76.6516 313.757 78.4127C314.638 80.1221 315.804 81.4429 317.254 82.3753C318.756 83.3077 320.414 83.7738 322.226 83.7738Z" fill="#FF4FB9"/>
<path d="M350.315 92.1652V36.223H361.97V92.1652H350.315Z" fill="#FF4FB9"/>
<path d="M390.06 92.9421C385.709 92.9421 381.876 92.0875 378.561 90.3781C375.297 88.617 372.733 86.1825 370.869 83.0746C369.056 79.9149 368.149 76.289 368.149 72.1969C368.149 68.1049 369.056 64.5308 370.869 61.4747C372.733 58.4186 375.297 56.0359 378.561 54.3265C381.876 52.6172 385.709 51.7625 390.06 51.7625C394.463 51.7625 398.296 52.6172 401.559 54.3265C404.874 56.0359 407.438 58.4186 409.251 61.4747C411.064 64.5308 411.971 68.1049 411.971 72.1969C411.971 76.289 411.038 79.9149 409.174 83.0746C407.361 86.1825 404.797 88.617 401.482 90.3781C398.218 92.0875 394.411 92.9421 390.06 92.9421ZM390.06 83.7738C391.873 83.7738 393.505 83.3077 394.955 82.3753C396.457 81.4429 397.648 80.1221 398.529 78.4127C399.41 76.6516 399.85 74.5537 399.85 72.1192C399.85 68.5451 398.892 65.7998 396.975 63.8833C395.11 61.915 392.805 60.9308 390.06 60.9308C387.315 60.9308 384.984 61.915 383.067 63.8833C381.202 65.8516 380.27 68.5969 380.27 72.1192C380.27 74.5537 380.71 76.6516 381.591 78.4127C382.472 80.1221 383.637 81.4429 385.087 82.3753C386.59 83.3077 388.247 83.7738 390.06 83.7738Z" fill="#FF4FB9"/>
<path d="M436.787 108.87C431.296 108.87 426.816 107.705 423.345 105.374C419.927 103.043 417.907 99.8831 417.285 95.8946H428.318C428.732 96.8788 429.613 97.6299 430.96 98.1479C432.358 98.6658 434.119 98.9248 436.243 98.9248C439.765 98.9248 442.33 98.2515 443.935 96.9047C445.541 95.5579 446.344 93.4601 446.344 90.6112V81.9868L446.965 82.1422C446.447 85.0429 444.945 87.3479 442.459 89.0573C439.973 90.7148 436.891 91.5436 433.213 91.5436C429.691 91.5436 426.609 90.7407 423.967 89.135C421.377 87.4774 419.357 85.1724 417.907 82.2199C416.456 79.2674 415.731 75.7969 415.731 71.8084C415.731 67.7682 416.482 64.2459 417.984 61.2416C419.486 58.2373 421.584 55.9064 424.278 54.2488C427.023 52.5913 430.209 51.7625 433.835 51.7625C437.564 51.7625 440.594 52.6431 442.925 54.4042C445.308 56.1654 446.706 58.574 447.121 61.6301L446.577 61.7078V52.5395H457.998V90.4558C457.998 96.1536 456.108 100.634 452.327 103.897C448.545 107.213 443.365 108.87 436.787 108.87ZM437.253 82.6084C439.999 82.6084 442.226 81.676 443.935 79.8113C445.645 77.8947 446.499 75.1753 446.499 71.653C446.499 68.1308 445.619 65.4372 443.858 63.5725C442.148 61.656 439.895 60.6977 437.098 60.6977C434.404 60.6977 432.177 61.656 430.416 63.5725C428.707 65.489 427.852 68.2085 427.852 71.7307C427.852 75.253 428.707 77.9465 430.416 79.8113C432.177 81.676 434.456 82.6084 437.253 82.6084Z" fill="#FF4FB9"/>
<path d="M469.337 108.093L480.292 83.8515L482.312 80.5105L492.568 52.5395H505L480.991 108.093H469.337ZM477.728 91.3882L462.499 52.5395H475.086L487.596 87.9695L477.728 91.3882Z" fill="#FF4FB9"/>
<path d="M326.595 100.971C326.595 100.971 337.214 114.438 355.602 114.438C373.991 114.438 384.609 100.971 384.609 100.971L388.753 104.079C388.753 104.079 377.358 119.618 355.602 119.618C333.847 119.618 322.452 104.079 322.452 104.079L326.595 100.971Z" fill="#FF4FB9"/>
</svg>
