<svg width="160" height="60" viewBox="0 0 160 60" fill="none" xmlns="http://www.w3.org/2000/svg">
<path d="M39.51 14.8421C42.0867 13.2623 44.8785 11.8329 47.8762 12.0042C48.7515 12.1653 49.4564 12.6385 49.8645 13.3226C50.8381 15.2447 49.6004 17.307 48.7629 18.3841C47.9859 19.3399 46.1843 19.702 46.2561 17.9612C46.3061 16.8243 47.233 15.9789 47.5705 15.7171C47.9864 15.4459 48.5247 15.3958 48.845 15.3958C49.1485 15.1138 49.3829 13.1419 46.8743 13.7855C43.6005 14.8119 41.1202 17.3685 38.4475 20.347C33.6592 26.0725 30.9636 31.2343 29.966 36.598C29.536 39.888 30.1118 42.1724 31.718 43.5911C35.8998 46.4792 39.0847 45.0405 48.635 42.7962C57.5932 40.3109 63.1484 40.7738 67.2414 43.4105C69.3139 44.749 71.7977 46.6913 72.6741 48.0091C70.044 46.0775 66.4325 45.1219 63.9289 45.3528C60.8837 45.4033 59.6653 47.7689 59.6653 47.7689C56.0009 41.0967 44.848 44.9297 42.6692 45.4534C40.4905 45.9762 37.2513 46.8419 34.5725 47.1234C30.7529 47.4452 27.5512 45.9061 26.009 43.0081C24.0158 38.8316 25.3462 33.6997 26.8166 30.1175C29.3673 24.1804 33.8751 18.7565 39.51 14.8421ZM122.194 14.0872C123.445 13.2316 125.001 12.1751 126.429 12.4466C126.867 12.5272 127.203 12.8801 127.281 13.3431C127.514 14.7816 126.88 15.9896 126.308 17.0657C125.819 17.2256 125.078 17.365 125.065 17.3675L125.595 16.2806C125.973 15.5362 126.302 14.8816 126.26 13.9964C126.15 13.7653 126.022 13.755 125.923 13.765C124.983 13.9562 123.776 15.1239 122.612 16.2611L121.859 16.9857C117.073 21.7655 111.45 31.7573 110.579 33.8509C112.544 32.8951 119.025 26.4746 122.192 22.057C122.836 22.0371 123.383 21.9273 123.389 21.9261C122.882 22.9223 119.412 27.3808 115.295 31.3157C113.398 33.137 111.311 34.7969 109.482 36.0648C108.583 38.0069 107.69 40.1502 107.306 42.4046C107.263 42.7166 107.161 44.0555 108.155 43.9749C109.428 43.6926 111.721 39.9007 111.721 39.9007C113.9 36.4892 116.663 32.1149 120.449 29.9007C121.32 29.4078 122.583 29.1508 123.444 29.6946C123.644 29.8255 124.131 30.4281 124.294 30.6995C124.302 30.6866 124.654 30.0654 124.82 29.7933H128.342L123.199 38.9134C123.181 38.9422 121.351 41.7909 120.889 43.1927C120.703 43.7458 121.201 43.9318 121.556 43.6907C123.595 42.4927 125.217 39.9687 126.49 38.0433H127.665C126.769 39.5558 123.318 44.7865 120.435 46.3568C119.631 46.7896 118.936 47.2948 118.008 47.1234C116.654 46.9526 116.586 45.2412 116.833 44.2855C116.063 45.1003 114.405 46.6907 112.916 47.0931C111.62 47.3444 109.92 46.8305 110.389 43.5501C108.206 46.2876 105.522 48.3609 103.901 46.3587C102.766 44.94 103.322 42.5444 104.523 39.0228C104.523 39.0228 104.927 37.815 104.972 37.6644C104.955 37.6539 104.95 37.6536 104.94 37.6536C104.157 37.8552 103.122 37.8849 103.047 37.8948C101.152 41.2157 98.7482 44.849 95.3078 46.6605C94.8014 46.9219 93.5137 47.4644 92.4905 46.9417C91.495 46.3781 91.1046 45.251 91.2961 43.5003C91.5681 41.2662 92.5504 39.3152 93.5354 37.4935C95.367 34.6259 97.9052 31.1435 101.301 29.7347C102.059 29.3929 103.183 29.1813 104.093 29.6341C104.869 30.1973 105.076 31.0122 105.076 31.8782C105.076 32.2807 105.029 32.6933 104.978 33.096C104.682 34.5047 104.092 35.8031 103.623 36.7689C103.85 36.9195 105.179 36.6081 105.524 36.347C110.275 26.4249 115.709 19.1591 122.144 14.1175L122.194 14.0872ZM98.0452 12.306C99.4489 11.9636 101.354 11.8438 102.516 13.1116C102.516 13.1116 103.078 12.9198 103.694 12.6986C105.259 12.135 108.335 11.4115 112.113 13.4739C113.776 14.3895 115.467 15.3153 117.066 16.2913L118.065 16.9056C117.375 17.5598 116.149 18.8675 115.404 19.7327C113.875 19.0689 109.342 15.5966 107.214 14.8919C107.185 14.8788 104.483 13.6486 103.162 14.3489C103.183 14.5906 103.196 14.9122 103.196 15.1536C103.196 17.146 102.439 18.9374 101.588 20.7386C100.121 23.1132 98.3243 25.7096 95.5442 26.3538C94.9404 26.3941 94.191 26.3333 93.7688 25.5687C92.9609 24.0995 93.7632 22.44 94.3401 21.2122C96.6081 16.3718 101.366 13.7552 101.366 13.7552C100.539 13.4332 99.581 13.5543 98.5471 14.0775C93.4787 16.5835 89.7161 21.2822 86.303 25.8607C82.9927 30.7914 80.6795 35.119 80.1438 40.2005C80.0231 41.9916 80.5949 43.3804 81.716 44.0443C83.4961 45.1308 85.5304 43.7222 86.9055 42.555C88.4608 41.1667 89.9976 39.1537 91.0022 37.1409C92.3599 34.4044 92.7191 31.5769 91.6975 31.2347C90.5284 30.903 89.4873 32.1501 88.967 32.9251C87.6009 34.7849 87.326 36.8731 87.3225 36.8997C85.3408 37.7854 83.5947 39.406 82.7385 40.3919C83.004 38.1983 83.4087 36.8193 84.1506 35.1487C85.5647 31.8987 88.2578 29.6349 91.011 29.3831C91.8587 29.3329 92.6542 29.7956 92.9895 30.5198C93.727 32.0697 93.2519 34.1025 92.8235 35.5413C91.0483 40.3817 87.4854 44.5881 83.5217 46.5403C81.6925 47.2745 79.1023 47.7171 77.1487 45.6751C74.8508 43.27 75.1369 39.2145 76.0784 36.4573C77.2998 32.3619 79.5911 28.2154 83.2854 23.4153C88.3102 17.2871 92.9971 13.755 98.0452 12.306ZM123.346 31.265C122.834 31.0535 122.348 31.3242 121.901 31.6468C119.246 33.7697 117.439 36.829 115.884 39.4251L115.745 39.7171C115.205 40.834 114.648 41.9813 114.675 43.2191C114.703 43.3906 114.82 43.612 114.986 43.6722C115.586 43.9037 116.084 43.4406 116.568 43.0081C116.568 43.0081 116.907 42.7064 116.908 42.7064C118.648 40.5424 120.04 38.0776 121.382 35.6927C122.069 34.4852 122.774 33.2276 123.516 32.0296C123.547 31.9794 123.601 31.8178 123.601 31.7571C123.601 31.5665 123.464 31.3755 123.346 31.265ZM99.0129 35.0189C97.5146 36.9439 95.3919 40.4774 95.427 42.4505C95.4331 42.7715 95.4933 43.0685 95.676 43.3402C97.2015 45.1111 100.858 40.0248 101.924 37.6497C101.066 37.2772 99.6437 36.3935 99.0159 35.0189H99.0129ZM58.3762 21.0413C59.2723 20.6084 60.6571 20.468 61.5647 21.0111C62.1736 21.3637 62.5814 22.0881 62.6243 22.8528C62.744 24.9861 60.2623 28.4875 59.0178 26.7171C58.7617 25.9523 59.0414 25.1366 59.8469 24.2913C60.2558 23.8687 60.76 23.6775 61.3879 23.6976C61.6351 23.3051 61.5719 22.7322 61.1809 22.5003C60.7705 22.2487 59.9429 22.4207 59.1819 23.014C56.4854 25.1575 54.1156 28.7097 52.7405 32.6243C52.497 33.3587 52.3645 34.4766 52.7961 35.2415C53.9771 37.062 56.7414 34.5286 56.7414 34.5286C58.6073 32.8683 60.4062 30.5676 61.8196 28.5247C65.4907 23.2118 70.3675 18.6303 72.5207 21.6087C72.5592 21.6593 72.6145 21.7654 72.6379 21.7855C72.6684 21.7458 73.0368 21.1494 73.0481 21.1312H76.5237C76.478 21.2103 69.2021 33.8295 69.1535 33.9173C69.0005 34.2286 68.9027 34.6689 69.1506 34.8802C69.3507 35.021 69.6984 34.8431 69.7014 34.8431C71.6102 33.9169 74.5492 29.6561 74.5637 29.6556H75.761C73.8844 32.4053 71.5609 35.5869 68.677 37.6195C67.8762 38.1528 66.8222 38.7216 65.7815 38.3489C64.6787 37.6544 64.8863 36.7886 64.9573 35.7425C64.9483 35.7425 62.2168 39.0634 59.9309 38.3987C59.1745 38.1572 57.9656 37.5024 58.8625 34.3831C58.8646 34.3748 58.9318 34.0993 58.9836 33.8919C58.7765 34.092 58.4117 34.4415 58.4084 34.4446C56.25 36.5579 53.8026 38.9328 50.7385 38.4193C48.4399 37.7049 48.5016 35.35 48.4211 34.7054C48.1629 32.5932 50.6933 28.3385 50.7043 28.306C50.04 28.4972 49.4506 28.6386 48.9612 28.7288C48.9217 28.792 48.1354 30.0898 48.1311 30.097C47.2693 31.5261 46.3791 33.0155 45.2268 34.2532L45.008 34.4847C43.3135 36.4667 39.3282 40.1701 37.1819 37.6243C35.739 35.4607 37.0654 30.7816 40.136 26.7562C43.4937 22.2686 47.6858 19.6525 49.7717 21.0208C51.8981 22.5703 49.8767 26.7064 49.6321 27.3607C50.3803 27.5522 52.7738 25.841 54.1692 24.3011C55.2776 23.0732 57.1766 21.494 58.3762 21.0413ZM103.404 31.013C102.952 30.8528 102.337 30.9632 101.928 31.2855C100.976 31.8484 99.9914 32.9654 100.285 34.3948C100.632 36.0548 102.425 36.6591 102.527 36.5882C103.102 35.5862 103.545 34.5134 103.845 33.3978L103.854 33.3275C103.893 33.0156 103.937 32.6738 103.937 32.3411C103.937 31.7987 103.823 31.2953 103.404 31.013ZM71.9651 22.9222C71.9089 22.4798 71.2643 21.8561 69.6516 23.2747C69.1719 23.6973 67.2037 26.2033 66.5276 27.139C63.8091 30.8021 62.9284 33.4486 62.8557 34.3138C62.8301 34.5753 62.9205 34.827 63.1487 34.9778C63.3383 35.1191 63.6234 35.0989 63.7961 35.0482C65.0079 34.3742 65.7507 33.408 66.4885 32.2816C66.4885 32.2816 67.0154 31.4767 67.0119 31.4866C68.6828 28.7091 70.4593 25.619 71.9651 22.9222ZM44.4602 26.1927C43.2918 27.8731 42.0917 29.6852 41.3352 31.7376L41.2414 32.0394C40.9776 32.8844 40.6523 33.932 41.2825 34.6868C41.5797 35.0587 42.1633 34.9672 42.5852 34.8265C44.0087 34.0923 45.1477 32.5628 46.0598 31.345C46.0598 31.345 47.57 28.8817 47.5754 28.8792C47.5903 28.8493 47.6213 28.7591 47.6213 28.7591C47.6613 28.669 47.6781 28.6279 47.678 28.598C47.6779 28.578 47.6704 28.5677 47.6643 28.5677C46.6363 28.2653 45.2616 27.6118 44.5285 26.2034C44.5266 26.1832 44.5217 26.1832 44.5188 26.1732C44.5067 26.1734 44.4747 26.183 44.4602 26.1927ZM49.0813 22.5101C48.6088 22.1379 47.7959 22.3293 47.2727 22.6917C46.7274 23.1041 45.4892 24.2408 45.7903 25.6898C46.0088 26.4343 46.7179 27.0583 47.6575 27.3499L47.9563 27.4007C48.1308 27.441 48.2827 27.4809 48.3791 27.4007C48.3791 27.4007 49.0462 25.871 49.053 25.8509C49.2818 25.1666 49.4837 24.4323 49.4836 23.7786C49.4836 23.2953 49.3726 22.8523 49.0813 22.5101ZM102.056 14.722C99.174 16.2014 96.4875 19.0891 94.9143 22.4905C93.846 25.0157 95.043 25.3275 95.7444 25.1868C96.902 24.9053 101.579 21.373 102.104 15.3558C102.124 15.1342 102.126 14.9734 102.056 14.722ZM80.4377 24.1566H77.1379L78.9993 21.1312H82.3L80.4377 24.1566ZM135 12.0042C135 12.0042 133.579 15.0336 130.807 17.4388C128.187 19.8234 123.488 22.3286 119.057 21.2015C119.842 20.1551 120.695 19.1391 121.57 18.1527C124.727 18.4745 127.335 17.5486 129.851 16.1195C132.922 14.3788 135 12.0042 135 12.0042Z" fill="#A0A0AE"/>
</svg>
