<svg width="160" height="60" viewBox="0 0 160 60" fill="none" xmlns="http://www.w3.org/2000/svg">
<path d="M77.0928 32.018C77.556 31.4547 78.1001 31.7971 78.0996 32.2807L77.7373 52.3051C77.7372 52.7476 77.4553 53.0286 77.1338 53.0288H75.3828C74.9804 53.0288 74.7588 52.8682 74.7588 52.3051C74.7588 52.3051 75 39.9496 75 39.4252C75 38.9023 74.517 38.6407 74.1953 39.184C73.7266 39.9745 72.7864 41.3168 71.9414 41.3168C71.0559 41.3168 70.5328 39.9883 70.4521 39.5854C70.3714 39.1832 70.0091 39.1426 69.7676 39.6254C68.4393 41.9602 67.3123 42.6447 66.4268 42.685C65.5412 42.7244 64.8572 41.1569 64.7363 40.7534C64.6158 40.3509 64.3739 40.3104 64.1328 40.7133C63.8912 41.1152 63.3672 41.6387 62.7637 42.3627C62.1593 43.0875 60.1077 44.8174 58.9404 43.852C57.689 42.8162 58.358 40.2429 59.1816 38.8618C60.5498 36.5678 61.6773 35.963 62.8447 36.0034C64.1326 36.2846 64.1726 35.8428 64.4141 35.561C64.6556 35.2791 65.2591 35.0376 65.7422 35.0375C66.4264 35.0375 66.7486 35.601 66.7891 36.2846C66.8289 36.9689 67.3928 39.1828 68.1572 39.1831C69.3648 39.1831 70.4519 35.521 70.6533 34.6752C70.8545 33.8296 71.5387 33.5877 71.7803 33.5473C72.0219 33.5071 72.5048 33.6282 72.5049 34.4331C72.5049 35.2384 72.6182 37.4516 73.5117 37.4516C74.3567 37.4509 75.2021 35.5404 75.6045 34.6957C76.0069 33.8506 76.7217 32.4702 77.0928 32.018ZM54.0986 16.6831C62.39 14.912 67.6948 21.4176 62.3896 29.1606C58.4064 34.9739 54.5507 37.1079 53.3057 37.9018C53.0155 38.1099 52.9713 38.337 52.9668 38.5581L52.9365 41.6977C52.9315 41.9193 53.0633 42.2586 53.3193 42.3911L64.9658 48.0776C66.1735 48.6413 66.0926 49.2045 65.4492 50.3305C64.8053 51.4566 64.322 51.6192 63.4365 51.2163L53.6162 46.4663C53.2138 46.3856 52.9318 46.5467 52.8516 47.0297V49.0825C52.7709 50.0487 52.5699 51.4984 49.5508 52.102L49.6719 45.3393C49.6718 44.5346 49.4303 44.2928 48.625 43.9711L45.2441 42.3618C44.5195 42.1202 44.2784 41.3956 45.2441 40.9125L49.4453 38.5493C49.6111 38.4781 49.7512 38.2361 49.7578 37.935L49.9531 23.9672C50.0337 23.3236 49.9939 23.1223 50.8789 22.5991L52.167 21.9555C52.9717 21.6737 53.3349 22.0357 53.335 22.8403L53.0527 34.9555C53.0527 35.5193 53.3057 35.8716 53.9785 35.52C55.7495 34.594 59.6528 30.8506 61.0215 28.2748C62.2725 25.9201 63.2691 20.3478 59.1709 19.4194C54.9044 18.4537 51.2816 20.6269 49.752 21.2709C48.2225 21.9149 40.0114 25.6991 34.6182 30.6899C33.8935 31.5754 33.571 31.655 33.4102 30.77C33.4903 28.6768 33.0884 26.3424 35.9863 24.4106C39.2382 22.2426 46.7349 18.2558 54.0986 16.6831ZM91.7637 12.2104C94.0985 7.86355 98.7751 6.42243 100.981 7.13911C102.592 7.66297 104.831 10.9014 103.396 14.6254C101.907 18.4891 98.1234 20.985 95.709 22.5952C95.3066 22.9169 94.859 23.4876 95.5078 24.2446C96.474 25.3711 99.8945 27.8676 99.8945 27.8676C101.544 29.1152 102.31 31.3282 100.497 33.6225C100.497 33.6225 94.2589 40.1439 92.8096 42.8403C92.4475 43.4444 91.8842 43.685 91.4404 42.9604C90.9975 42.2359 89.7101 40.0629 90.958 38.7348C90.958 38.7348 96.8341 32.858 97.3984 30.685C97.5588 29.9604 97.6802 28.9943 96.5938 27.9077C95.507 26.8209 94.4464 25.6504 94.0176 25.0493C93.4136 24.2042 93.1721 23.1577 94.2178 21.9506C95.2646 20.7434 99.3711 16.8577 99.9336 13.2973C100.297 11.0028 99.6115 9.87581 99.1289 9.43305C98.6452 8.99074 96.8349 7.90349 95.0635 10.6C93.2935 13.2968 93.0352 16.4089 92.8096 18.0864C92.4476 20.7828 92.4072 32.8536 92.4072 33.5424C92.4072 34.0858 92.4883 35.354 91.4414 36.1997C90.3955 37.0443 88.1009 38.3319 88.8652 36.1586C89.0669 35.2333 89.2686 30.3225 89.2686 28.5112C89.2686 26.7 89.3098 25.0492 89.3486 23.601C89.5503 15.9536 90.2521 15.0258 91.7637 12.2104ZM64.0117 37.5727C63.4179 37.234 62.1205 38.5793 61.6777 39.4243C61.3824 39.9875 60.7926 41.5978 61.2354 41.8393C62.0803 42.1204 63.0454 40.5121 63.4082 39.9077C63.7703 39.304 64.5755 37.8944 64.0117 37.5727ZM82.1289 31.0161C83.4945 30.2273 85.0784 30.4242 85.6152 31.3549C86.1531 32.2858 85.5619 33.7199 84.1963 34.5082C82.8307 35.2971 81.2078 35.1407 80.6709 34.2094C80.1332 33.2786 80.7644 31.8039 82.1289 31.0161ZM120.108 22.9125C120.518 22.2 121.65 22.1029 122.121 23.6577C122.644 25.3886 122.724 27.2796 123.73 27.6821C124.314 27.9439 124.576 27.7029 124.736 27.562C125.293 27.0754 125.481 27.7436 125.118 28.2661C124.796 28.79 123.73 30.4591 122.161 30.4594C120.591 30.4594 120.336 27.9573 120.048 27.1791C119.846 26.6359 119.263 26.4344 118.901 27.1586C118.49 27.9804 116.848 31.5061 115.399 31.5063C114.555 31.5063 114.473 30.4402 114.393 30.0375C114.312 29.6352 113.869 29.6947 113.628 30.1772C112.299 32.512 111.575 32.714 110.689 32.7543C109.804 32.7941 109.12 31.2241 108.999 30.8217C108.878 30.4191 108.637 30.3789 108.396 30.7817C108.153 31.1836 107.63 31.7075 107.027 32.4321C106.423 33.1564 104.33 35.4094 103.163 34.4438C101.912 33.4076 102.903 30.5123 103.727 29.1313C105.095 26.8376 107.027 25.7504 108.194 25.7905C109.04 25.911 109.08 25.67 109.321 25.3881C109.563 25.1062 109.865 24.8647 110.328 24.8647C111.012 24.865 111.254 25.7099 111.294 26.394C111.334 27.0783 111.414 29.2924 112.179 29.2924C113.366 29.2921 114.309 26.2771 114.675 25.4887C115.198 24.3613 115.882 23.3754 116.526 23.3754C117.089 23.3758 117.432 24.0598 117.412 24.603C117.382 25.4076 117.13 26.2129 117.692 26.2133C118.176 26.2133 118.659 25.2877 118.881 24.8852L120.108 22.9125ZM108.396 27.7827C107.801 27.4444 106.504 28.8098 106.062 29.6547C105.766 30.2184 105.216 31.3847 105.658 31.6264C106.503 31.9083 107.309 30.5806 107.671 29.977C108.033 29.3729 108.958 28.1049 108.396 27.7827ZM124.804 16.8168C125.276 16.8168 125.73 17.005 126.064 17.3393C126.399 17.6734 126.587 18.1265 126.587 18.5991C126.588 18.8339 126.542 19.0673 126.453 19.2846C126.364 19.5018 126.233 19.6993 126.067 19.8657C125.902 20.0321 125.705 20.1641 125.488 20.2543C125.271 20.3446 125.039 20.3909 124.804 20.3911C124.33 20.391 123.875 20.2028 123.54 19.8676C123.205 19.5325 123.017 19.0779 123.017 18.6039C123.017 18.1301 123.205 17.6754 123.54 17.3403C123.875 17.0052 124.33 16.8169 124.804 16.8168ZM124.804 17.0327C124.598 17.0322 124.394 17.0724 124.203 17.1508C124.013 17.2293 123.839 17.3451 123.693 17.4907C123.547 17.6362 123.432 17.8091 123.353 17.9995C123.274 18.1896 123.233 18.3932 123.232 18.5991C123.232 18.8058 123.271 19.0113 123.35 19.2026C123.428 19.3939 123.544 19.5678 123.69 19.7143C123.836 19.8608 124.01 19.9768 124.201 20.0561C124.392 20.1353 124.597 20.1763 124.804 20.1762C125.01 20.176 125.215 20.1346 125.405 20.0551C125.596 19.9757 125.769 19.8598 125.915 19.7133C126.061 19.5669 126.176 19.3927 126.254 19.2016C126.332 19.0106 126.372 18.8055 126.371 18.5991C126.371 18.1838 126.206 17.7853 125.912 17.4916C125.618 17.1978 125.219 17.0327 124.804 17.0327ZM125.01 17.6039C125.179 17.6039 125.347 17.6132 125.497 17.7016C125.647 17.7858 125.722 17.9639 125.722 18.1323C125.722 18.525 125.446 18.6696 125.09 18.6791L125.693 19.601H125.403L124.833 18.6791H124.384V19.601H124.141V17.6039H125.01ZM124.384 18.4877H124.758C125.038 18.4877 125.474 18.5343 125.474 18.1274C125.473 17.8188 125.202 17.7817 124.954 17.7817H124.384V18.4877Z" fill="#A0A0AE"/>
</svg>
