<svg width="160" height="60" viewBox="0 0 160 60" fill="none" xmlns="http://www.w3.org/2000/svg">
<path fill-rule="evenodd" clip-rule="evenodd" d="M46.6091 14.4979C40.4576 21.722 34.5596 30.6805 34.5005 37.3766C34.4774 39.8961 35.2818 42.0955 37.2111 43.7615C39.9876 46.1608 43.0468 47.0068 46.0911 47.0118C50.5398 47.018 54.9574 45.2232 58.4163 43.8393C64.2415 41.5097 128.634 13.5467 128.634 13.5467C129.255 13.2354 129.138 12.8476 128.361 13.0412C128.047 13.1196 58.26 32.032 58.26 32.032C56.9382 32.4059 55.5722 32.6014 54.1985 32.6135C48.8353 32.6452 44.0628 29.6682 44.1014 23.3948C44.1164 20.9401 44.8678 17.9799 46.6091 14.4979Z" fill="#A0A0AE"/>
</svg>
