<svg width="160" height="60" viewBox="0 0 160 60" fill="none" xmlns="http://www.w3.org/2000/svg">
<path d="M40.0332 35.6592C39.4437 35.109 39.9555 34.3617 40.7021 34.7939C49.0726 39.6668 59.4077 42.5752 70.0967 42.5752C77.2882 42.5752 85.2267 41.0821 92.5361 37.9775C93.6364 37.5453 94.5402 38.7238 93.4795 39.5098C86.9953 44.3042 77.5634 46.8584 69.4287 46.8584C58.0322 46.8584 47.8142 42.6543 40.0332 35.6592ZM88.4492 35.3047C92.1826 32.6718 98.2741 33.4577 98.9814 34.3223C99.6886 35.1874 98.7844 41.3177 95.2871 44.2256C94.737 44.6578 94.2264 44.4222 94.4619 43.833C95.2479 41.8681 97.0157 37.5056 96.1904 36.4053C95.3649 35.3445 90.6893 35.8939 88.6064 36.1689C87.9777 36.2475 87.8597 35.6977 88.4492 35.3047ZM111.242 13.2979C116.39 13.2979 119.181 17.6997 119.181 23.3193C119.18 28.7422 116.115 33.0644 111.242 33.0645C106.212 33.0645 103.461 28.6637 103.461 23.1621C103.422 17.6211 106.212 13.2979 111.242 13.2979ZM32.3701 13.1406C34.0599 13.1406 36.2615 13.5733 37.5977 14.8701C39.2869 16.4419 39.1299 18.5638 39.1299 20.8428V26.2266C39.1299 27.8377 39.798 28.5454 40.4268 29.4492C40.6625 29.7636 40.7018 30.157 40.4268 30.3535C39.6801 30.943 38.4222 32.0434 37.7148 32.6328C37.4791 32.8291 37.1646 32.8681 36.8896 32.7109C35.7502 31.7679 35.5144 31.2963 34.8857 30.3926C32.9995 32.3182 31.6239 32.9072 29.1875 32.9072C26.2794 32.9072 24 31.0996 24 27.5234C24.0001 24.6942 25.533 22.8084 27.6943 21.8652C29.5806 21.04 32.2136 20.8823 34.2178 20.6465V20.2139C34.2178 19.3887 34.2959 18.4065 33.7852 17.6992C33.3529 17.0705 32.5667 16.7949 31.8594 16.7949C30.5234 16.795 29.3445 17.4634 29.0693 18.8779C28.9908 19.1922 28.7946 19.5065 28.4805 19.5068L25.1396 19.1533C24.8646 19.0747 24.5506 18.8783 24.6289 18.4463C25.4148 14.3594 29.0692 13.1407 32.3701 13.1406ZM77.7988 13.1406C79.4887 13.1406 81.6902 13.5733 83.0264 14.8701C84.7157 16.4419 84.5586 18.5638 84.5586 20.8428V26.2266C84.5586 27.8377 85.2267 28.5454 85.8555 29.4492C86.0913 29.7636 86.1306 30.157 85.8555 30.3535C85.1088 30.943 83.8509 32.0434 83.1436 32.6328C82.9078 32.8291 82.5933 32.8681 82.3184 32.7109C81.1789 31.7679 80.9432 31.2963 80.3145 30.3926C78.4282 32.3182 77.0527 32.9072 74.6162 32.9072C71.7081 32.9072 69.4287 31.0996 69.4287 27.5234C69.4288 24.6942 70.9617 22.8084 73.123 21.8652C75.0094 21.04 77.6423 20.8823 79.6465 20.6465V20.2139C79.6465 19.3887 79.7247 18.4065 79.2139 17.6992C78.7816 17.0705 77.9954 16.7949 77.2881 16.7949C75.9521 16.795 74.7732 17.4634 74.498 18.8779C74.4195 19.1922 74.2233 19.5066 73.9092 19.5068L70.5684 19.1533C70.2934 19.0747 69.9793 18.8783 70.0576 18.4463C70.8435 14.3595 74.4979 13.1407 77.7988 13.1406ZM61.5303 13.2979C62.9841 13.298 64.5557 13.8875 65.5381 15.2627C66.6384 16.7559 66.4024 18.9172 66.4023 20.8428V32.082C66.4023 32.4357 66.0881 32.7109 65.7344 32.7109H62.3154C61.9619 32.6715 61.6875 32.3963 61.6875 32.082V22.6504C61.6875 21.9035 61.7655 20.0179 61.6084 19.3105C61.3333 18.1316 60.5862 17.7773 59.5645 17.7773C58.7395 17.7775 57.8362 18.328 57.4824 19.2314C57.1288 20.1352 57.168 21.6286 57.168 22.6504V32.082C57.168 32.4356 56.8535 32.7108 56.5 32.7109H53.041C52.6875 32.6715 52.4131 32.3963 52.4131 32.082V22.6504C52.4131 20.6855 52.7264 17.7383 50.29 17.7383C47.8149 17.7387 47.8935 20.5678 47.8936 22.6504V32.082C47.8543 32.3964 47.5785 32.6719 47.1855 32.6719H43.7275C43.4132 32.6325 43.1379 32.3964 43.0986 32.082V14.3193C43.0988 13.9659 43.4132 13.6906 43.7666 13.6904H46.9893C47.3429 13.6904 47.5789 13.9659 47.6182 14.2803V16.5986H47.6973C48.5226 14.3589 50.1339 13.2979 52.2559 13.2979C54.4169 13.298 55.7923 14.3589 56.7354 16.5986C57.5606 14.3588 59.4868 13.2979 61.5303 13.2979ZM131.049 13.2979C132.581 13.2979 134.113 13.8484 135.096 15.3809C136 16.7956 136 19.1928 136 20.9219V32.1221C135.961 32.4362 135.686 32.6718 135.332 32.6719H131.874C131.56 32.6326 131.285 32.397 131.245 32.1221V22.4541C131.245 20.4893 131.481 17.6605 129.084 17.6602C128.259 17.6602 127.472 18.2098 127.079 19.0742C126.608 20.1745 126.529 21.2359 126.529 22.4541V32.043C126.49 32.3967 126.175 32.6719 125.821 32.6719H122.363C122.01 32.6325 121.734 32.3573 121.734 32.043V14.2412C121.774 13.927 122.049 13.6516 122.402 13.6514H125.625C125.939 13.6514 126.175 13.8871 126.254 14.1621V16.874H126.333C127.315 14.4376 128.652 13.2979 131.049 13.2979ZM100.749 13.6514C101.103 13.6514 101.418 13.9266 101.418 14.2803V16.4414C101.418 16.7951 101.103 17.2668 100.553 18.0527L94.6582 26.4629C96.8589 26.4236 99.1777 26.7375 101.143 27.8379C101.575 28.0736 101.692 28.4667 101.731 28.8203V31.5322C101.731 31.9252 101.339 32.3579 100.906 32.1221C97.4088 30.2752 92.7329 30.0785 88.8818 32.1611C88.4889 32.3576 88.0557 31.9643 88.0557 31.5713V28.9775C88.0557 28.5846 88.0563 27.8776 88.4883 27.249L95.3262 17.4639H89.3926C89.039 17.4639 88.7248 17.1885 88.7246 16.835V14.2803C88.7246 13.8875 88.9991 13.6516 89.3525 13.6514H100.749ZM34.2568 23.4365C31.7418 23.4365 29.1084 23.9872 29.1084 26.9346C29.1085 28.4276 29.8947 29.449 31.2305 29.4492C32.2128 29.4492 33.0777 28.8601 33.6279 27.8779C34.296 26.6597 34.2568 25.5197 34.2568 24.1836V23.4365ZM79.6465 23.4365C77.1314 23.4365 74.498 23.9872 74.498 26.9346C74.4981 28.4277 75.2842 29.4491 76.6201 29.4492C77.6025 29.4492 78.4674 28.8602 79.0176 27.8779C79.6856 26.6597 79.6465 25.5197 79.6465 24.1836V23.4365ZM111.242 16.9521C108.688 16.9521 108.53 20.4499 108.53 22.6113C108.53 24.7727 108.492 29.4102 111.203 29.4102C113.875 29.4099 114.032 25.6767 114.032 23.3975C114.032 21.9041 113.954 20.0964 113.521 18.6816C113.129 17.4241 112.342 16.9522 111.242 16.9521Z" fill="#A0A0AE"/>
</svg>
