<svg width="160" height="60" viewBox="0 0 160 60" fill="none" xmlns="http://www.w3.org/2000/svg">
<path d="M118.9 43.0246C120.432 43.1731 121.963 43.3326 123.49 43.4976L126.863 35.1699L130.069 44.2658C131.714 44.4718 133.358 44.6882 134.997 44.914L129.376 28.9637L134.999 15.0802H130.237L130.188 15.1484L127.15 22.6486L124.484 15.0813H119.783L124.636 28.8551L118.9 43.0246H118.9ZM115.344 42.6983V15.0802H110.645V42.3107C112.212 42.4317 113.78 42.5619 115.344 42.6983ZM80.0414 41.1539C81.3101 41.1539 82.5773 41.1634 83.8423 41.1737V31.0273H89.4879V26.7065H83.8427V19.4061H90.3448V15.0802H79.1248V41.1575C79.4295 41.1575 79.7356 41.1528 80.0414 41.1539ZM65.4503 41.4179C67.016 41.3621 68.5831 41.3152 70.1524 41.2771V19.4069H74.5451V15.0813H61.0576V19.4069H65.451V41.4179H65.4503ZM29.5082 44.3299V27.8758L35.0727 43.6655C36.7839 43.4734 38.4977 43.2926 40.2163 43.1218V15.0806H35.707V32.1243L29.7025 15.0806H25V44.9214H25.0282C26.518 44.7153 28.0129 44.5195 29.5082 44.3299ZM56.526 19.4058V15.0806H45.3049V42.6543C49.0383 42.332 52.7759 42.0617 56.5168 41.8436V37.5143C54.3476 37.6405 52.1828 37.7857 50.0232 37.9474V31.0291H55.6687V26.7057H50.0232V19.4058H56.526ZM99.6585 37.3075V15.0791H94.9384V41.4336C98.693 41.5715 102.433 41.7636 106.161 42.0056V37.6738C103.997 37.5341 101.83 37.4131 99.6585 37.3075Z" fill="#A0A0AE"/>
</svg>
